<?xml version="1.0" standalone="no"?>
<!DOCTYPE svg PUBLIC "-//W3C//DTD SVG 20010904//EN"
 "http://www.w3.org/TR/2001/REC-SVG-20010904/DTD/svg10.dtd">
<svg version="1.0" xmlns="http://www.w3.org/2000/svg"
 width="500.000000pt" height="500.000000pt" viewBox="0 0 500.000000 500.000000"
 preserveAspectRatio="xMidYMid meet">

<g transform="translate(0.000000,500.000000) scale(0.100000,-0.100000)"
fill="#000000" stroke="none">
<path d="M2330 3909 c-267 -28 -483 -105 -695 -247 -180 -120 -359 -319 -456
-506 l-41 -78 43 8 c56 11 193 11 240 1 l36 -9 57 81 c172 246 458 423 770
477 111 20 347 14 447 -10 73 -18 181 -56 239 -86 22 -11 41 -20 44 -20 3 0
-8 28 -25 63 -28 58 -30 69 -27 157 l3 95 -125 31 c-193 49 -341 61 -510 43z"/>
<path d="M3395 3763 c-35 -9 -63 -33 -79 -68 -23 -48 -23 -382 0 -430 16 -35
71 -65 119 -65 l25 0 0 -127 0 -128 123 128 123 127 188 0 c294 0 296 2 296
278 0 201 -7 234 -58 269 -25 16 -57 18 -372 20 -190 0 -354 -1 -365 -4z m130
-229 c27 -11 38 -53 20 -80 -20 -31 -79 -34 -95 -5 -29 56 16 107 75 85z m228
-6 c9 -7 19 -24 22 -38 14 -59 -89 -85 -109 -28 -19 54 42 100 87 66z m221 -4
c19 -18 21 -65 4 -82 -7 -7 -26 -12 -43 -12 -37 0 -55 16 -55 49 0 51 60 80
94 45z"/>
<path d="M2433 3420 c-234 -34 -425 -178 -541 -407 -70 -136 -86 -337 -38
-478 15 -43 47 -109 71 -146 91 -136 105 -222 44 -273 -31 -27 -47 -30 -87
-20 -24 7 -57 58 -47 74 3 6 2 10 -3 10 -15 0 -42 -65 -42 -102 0 -48 31 -92
84 -117 126 -62 299 -23 382 86 l28 36 -25 16 c-60 39 -183 158 -225 217 -64
89 -114 248 -114 358 0 63 30 99 154 188 189 135 255 197 312 293 20 33 38 62
40 64 2 2 4 -25 4 -60 l0 -65 -62 -70 c-70 -78 -182 -173 -273 -232 -91 -59
-134 -118 -120 -163 6 -16 17 -11 98 43 198 132 349 264 340 297 -2 10 -1 33
4 51 l9 34 57 -70 c78 -98 143 -146 280 -208 137 -63 220 -109 262 -144 l30
-25 3 32 c2 18 -2 39 -9 47 -7 8 -55 40 -108 71 -169 98 -264 166 -328 232
-84 86 -103 128 -103 222 l0 74 33 -60 c93 -170 177 -252 367 -360 212 -121
216 -124 207 -223 -16 -170 -75 -299 -187 -413 -41 -41 -94 -91 -118 -110
l-43 -35 43 -46 c56 -60 122 -89 218 -95 96 -6 164 17 197 66 27 40 29 76 6
132 l-16 42 -11 -34 c-20 -60 -82 -73 -139 -29 -58 46 -45 122 41 257 71 110
102 200 109 313 15 245 -128 506 -347 638 -138 82 -287 114 -437 92z"/>
<path d="M1031 3176 c-14 -17 -7 -36 14 -36 22 0 29 20 13 36 -13 13 -16 13
-27 0z"/>
<path d="M893 3070 c-40 -24 -53 -48 -53 -99 0 -117 164 -152 215 -45 29 61 6
118 -62 153 -32 16 -64 14 -100 -9z"/>
<path d="M3868 3079 c-20 -11 -24 -39 -7 -39 20 0 49 21 49 35 0 17 -17 19
-42 4z"/>
<path d="M3776 3003 c37 -112 55 -221 52 -316 l-3 -87 -115 -53 -114 -52 -12
-80 c-48 -332 -230 -633 -487 -807 -72 -49 -218 -119 -307 -147 -271 -86 -559
-59 -825 76 -108 55 -130 69 -219 147 l-68 60 -39 -44 -38 -45 27 -29 c56 -59
201 -160 307 -212 161 -79 356 -122 560 -125 125 -2 51 -17 -88 -18 -131 -1
-220 14 -361 61 -147 48 -260 114 -404 236 l-62 53 -33 -37 c-53 -60 -53 -62
-12 -104 72 -74 224 -169 370 -233 205 -89 461 -128 696 -107 141 13 173 19
290 56 350 109 669 386 841 728 95 189 140 393 141 646 2 173 -13 295 -49 418
-22 72 -28 82 -48 82 l-22 0 22 -67z"/>
<path d="M1540 2951 c0 -11 4 -22 9 -25 12 -8 34 21 26 34 -11 17 -35 11 -35
-9z"/>
<path d="M1253 2951 c-109 -28 -162 -157 -108 -262 34 -65 117 -100 201 -85
49 10 111 68 125 119 37 139 -81 262 -218 228z"/>
<path d="M3911 2951 c-38 -10 -38 -31 -1 -31 35 0 70 15 70 30 0 11 -32 12
-69 1z"/>
<path d="M2405 2900 c-10 -23 -47 -68 -82 -100 l-64 -60 34 0 c45 0 97 -19 97
-35 0 -9 -20 -12 -72 -11 -67 1 -79 -2 -143 -38 -38 -22 -81 -45 -95 -52 -25
-13 -25 -14 -19 -101 7 -103 28 -152 97 -236 120 -145 313 -217 467 -173 130
38 272 152 330 266 22 44 29 72 32 140 l4 85 -113 55 c-100 48 -120 54 -170
53 -62 -2 -73 8 -34 29 24 13 23 14 -51 53 -48 25 -99 63 -138 103 l-62 62
-18 -40z m-49 -324 c41 -35 39 -89 -4 -127 -36 -33 -60 -36 -102 -14 -53 27
-57 115 -7 150 32 22 82 19 113 -9z m459 -2 c35 -38 34 -87 -4 -125 -33 -32
-58 -36 -100 -14 -54 27 -61 108 -13 145 36 29 87 26 117 -6z m-266 -233 c19
-12 5 -31 -24 -31 -13 0 -27 5 -31 11 -7 11 12 29 31 29 6 0 16 -4 24 -9z
m-37 -109 c55 -4 76 0 122 21 31 14 56 24 56 21 0 -23 -35 -77 -64 -99 -92
-70 -235 -26 -262 79 l-6 27 43 -23 c29 -15 67 -24 111 -26z"/>
<path d="M915 2770 c-8 -14 3 -30 21 -30 8 0 14 9 14 20 0 21 -24 28 -35 10z"/>
<path d="M3900 2740 c0 -23 89 -45 97 -24 2 7 -10 17 -28 23 -39 14 -69 14
-69 1z"/>
<path d="M1084 2601 c-83 -20 -142 -102 -151 -210 l-6 -71 47 0 46 0 0 40 c0
51 22 105 49 122 12 7 21 18 21 24 0 6 11 28 25 48 38 57 35 62 -31 47z"/>
<path d="M1400 2585 c-49 -26 -119 -32 -166 -15 -20 8 -32 7 -49 -4 -28 -18
-58 -102 -53 -148 l3 -33 150 0 150 0 0 30 c-1 17 -4 40 -8 51 -6 17 -3 23 14
27 54 14 109 -56 109 -138 0 -35 0 -35 45 -35 l45 0 0 39 c0 93 -66 208 -137
237 -43 18 -50 17 -103 -11z"/>
<path d="M1366 2245 c-20 -21 -21 -54 0 -83 23 -33 83 -27 103 9 12 22 12 29
0 55 -11 23 -22 30 -50 32 -24 2 -42 -3 -53 -13z"/>
<path d="M1207 2226 c-9 -22 19 -42 37 -26 19 15 10 40 -14 40 -10 0 -20 -6
-23 -14z"/>
<path d="M974 2185 c-21 -32 -7 -69 31 -87 22 -10 30 -8 53 9 33 25 38 47 18
78 -23 35 -79 35 -102 0z"/>
<path d="M1184 2076 c-59 -26 -97 -112 -80 -181 4 -14 22 -43 41 -64 29 -32
33 -40 21 -50 -11 -10 -21 -6 -49 19 -19 16 -39 30 -44 30 -19 0 -72 -67 -82
-105 -16 -60 -15 -65 24 -65 30 0 35 3 35 24 0 69 85 91 92 23 l3 -32 100 0
100 0 0 35 c0 28 4 36 22 38 25 4 53 -31 53 -65 0 -28 14 -37 46 -29 39 10 24
95 -27 146 l-31 30 -40 -31 c-28 -23 -42 -29 -50 -21 -8 8 -1 22 25 51 42 46
52 76 44 131 -13 100 -112 156 -203 116z"/>
<path d="M2320 2022 c0 -45 -30 -97 -70 -120 -16 -9 -30 -22 -30 -27 0 -34
155 -143 247 -174 51 -17 60 -18 107 -4 82 23 175 74 222 121 24 24 44 47 44
52 0 4 -16 17 -35 29 -45 26 -75 76 -75 124 0 20 -1 37 -2 37 -2 0 -28 -10
-58 -22 -78 -31 -223 -31 -297 0 l-53 22 0 -38z"/>
<path d="M2850 1785 c-48 -49 -88 -78 -154 -111 -96 -48 -94 -52 22 -28 90 18
258 96 317 147 l39 34 -59 6 c-33 3 -69 9 -80 12 -15 4 -35 -10 -85 -60z"/>
<path d="M1603 1758 c-12 -13 -46 -57 -78 -98 -31 -41 -65 -77 -76 -80 -21 -5
-21 -5 -1 -23 19 -18 21 -17 73 48 30 37 71 87 92 112 20 24 35 49 32 54 -9
14 -20 11 -42 -13z"/>
</g>
</svg>
